<!-- Created with Inkscape (http://www.inkscape.org/) -->
<svg xmlns:rdf="http://www.w3.org/1999/02/22-rdf-syntax-ns#" xmlns="http://www.w3.org/2000/svg" xml:space="preserve" height="145.17999" width="475" version="1.1" xmlns:cc="http://creativecommons.org/ns#" xmlns:dc="http://purl.org/dc/elements/1.1/"><metadata><rdf:RDF><cc:Work rdf:about=""><dc:format>image/svg+xml</dc:format><dc:type rdf:resource="http://purl.org/dc/dcmitype/StillImage"/><dc:title/></cc:Work></rdf:RDF></metadata><g transform="matrix(1.25,0,0,-1.25,0,145.18129)"><g transform="translate(17.512958,13.525781)"><g transform="matrix(0.09999805,6.2390014e-4,-6.2390014e-4,0.09999805,0.27334173,-1.0835992)" fill-rule="nonzero"><path fill="#f1511b" d="m234.359,630.656c50.692,50.684,120.735,82.039,198.114,82.039,77.172,0,147.047-31.211,197.699-81.664l0.203,186.563c-59.301,30.547-126.609,47.797-197.902,47.797-71.328,0-138.996-19.43-198.328-49.996l0.214-184.739"/><path fill="#eea00c" d="M630.375,234.746c-50.684-50.691-120.695-82.043-198.074-82.043-77.172,0-147.051,31.203-197.735,81.664l-0.207-186.5623c59.336-30.5469,126.618-47.8047,197.942-47.8047,71.332,0,138.633,17.2578,197.937,47.8125l0.137,186.9335"/><path fill="#564ca9" d="m234.734,234.504c-50.679,50.684-82.043,120.691-82.043,198.074,0,77.172,31.211,147.047,81.668,197.735l-186.566,0.195c-30.543-59.324-47.793-126.602-47.793-197.93s17.25-138.633,47.8164-197.949l186.9176-0.125"/><path fill="#159281" d="m630.273,631.039c50.688-50.676,82.047-120.726,82.047-198.109,0-77.168-31.207-147.051-81.675-197.696l186.574-0.203c30.547,59.305,47.793,126.61,47.793,197.899,0,71.34-17.246,138.648-47.809,197.98l-186.93,0.129"/></g><g style="writing-mode:lr-tb;letter-spacing:0px;text-anchor:start;word-spacing:0px;text-align:start;" font-weight="normal" transform="scale(1,-1)" line-height="100%" font-stretch="normal" font-size="53.59999847px" font-variant="normal" font-style="normal" font-family="Avenir LT Std" fill="#231f20"><path d="m122.86331-23.99637c11.52399,0,19.832-8.468811,19.832-19.9392,0-11.470388-8.30801-19.939199-19.832-19.939199s-19.832,8.468811-19.832,19.939199c0,11.470389,8.30801,19.9392,19.832,19.9392m0-4.1808c-8.89759,0-15.008-7.021609-15.008-15.7584s6.11041-15.758399,15.008-15.758399,15.008,7.021608,15.008,15.758399-6.11041,15.7584-15.008,15.7584"/><path d="m148.96567-12.740371,4.1808,0,0-16.669599,0.1072,0c1.5544,2.840797,5.1456,5.092,9.648,5.092,7.02159,0,12.5424-5.681608,12.5424-13.1856,0-7.611192-5.30641-13.185599-13.1856-13.185599-3.6448,0-6.7,1.608002-9.0048,4.287999h-0.1072v-3.644799h-4.1808v37.305598m4.1808-24.763199c0-5.252794,3.484-9.3264,8.8976-9.3264,5.41359,0,8.8976,4.073606,8.8976,9.3264,0,5.252795-3.48401,9.3264-8.8976,9.3264-5.4136,0-8.8976-4.073605-8.8976-9.3264"/><path d="m201.18966-31.98277c-1.9832,2.519197-4.39521,3.8056-7.9864,3.8056-4.556,0-7.8792-3.698404-8.2008-8.04h20.2608v-1.34c0-8.307991-4.82401-13.131999-11.8992-13.131999-7.39679,0-12.864,5.413607-12.864,13.185599,0,7.289593,4.82401,13.1856,12.7032,13.1856,4.66319,0,8.2008-1.393604,11.1488-5.1992l-3.1624-2.4656m-16.1872-7.772c0.536-4.234395,3.5912-7.0752,8.2008-7.0752,4.60959,0,7.3968,2.840805,7.5576,7.0752h-15.7584"/><path d="m211.7832-24.96117,4.1808,0,0-12.2208c0-5.735194,2.3584-9.648,7.77199-9.648,3.9128,0,5.7352,2.626405,5.7352,6.8072v15.0616h4.1808v-15.4904c0-6.056794-2.948-10.237599-9.5408-10.237599-4.12719,0-7.236,2.304802-8.36159,4.770399h-0.1072c0-1.393598-0.1072-2.787201-0.1072-4.127199h-3.9664c0,1.661598,0.2144,3.644802,0.2144,5.949599v19.1352"/><path d="m242.36953-24.96117,4.5024,0,0-31.838399,0.1072,0,13.6144,31.838399,2.7336,0,13.6144-31.838399,0.1072,0,0,31.838399,4.5024,0,0-37.948799-6.5392,0-12.9712,29.747999-0.1072,0-12.864-29.747999-6.7,0,0,37.948799"/><path d="m290.94453-24.96117,4.5024,0,0-17.0448,5.7888,0,10.2912,17.0448,5.5208,0-10.7736-17.4736c5.89599-0.911199,9.4872-4.502405,9.4872-10.023199,0-9.379991-7.77201-10.452-15.1152-10.452h-9.7016v37.948799m4.5024-33.767999,6.3248,0c4.39519,0,9.1656,0.804005,9.1656,6.2712,0,6.271193-6.48561,6.271199-11.4704,6.271199h-4.02v-12.542399"/><path d="m345.41971-59.425969c-2.7872-3.269597-6.3784-4.4488-10.6128-4.4488-6.64639,0-12.9176,3.644807-12.9176,10.9344,0,6.324793,4.07361,8.683201,9.4336,10.451999,6.75359,2.251198,9.916,3.055205,9.916,7.7184,0,4.341596-4.3952,6.5928-8.2544,6.5928-3.2696,0-6.4856-1.447203-8.0936-4.2344l-3.8592,3.1624c2.5728,3.805596,7.28961,5.2528,11.6848,5.2528,6.86079,0,13.3464-3.537608,13.3464-11.0952,0-7.450392-5.46721-9.380002-11.3632-11.256-6.05679-1.929598-7.9864-3.484003-7.9864-6.967999,0-4.502396,4.1272-6.3784,8.0936-6.3784,2.7336,0,5.4136,1.072002,6.9144,3.484l3.6984-3.216"/></g><g style="letter-spacing:1.44799995px;word-spacing:0px;" font-weight="normal" transform="scale(1,-1)" font-stretch="normal" line-height="125%" font-size="44.79999924px" font-variant="normal" font-family="Avenir LT Std" font-style="normal" fill="#231f20"><path d="m270.64063,5.5247431,2.432,0,1.8688-4.4544001,9.0624,0,1.8432,4.4544001,2.5088,0-7.7056-18.1248001-2.0224,0-7.9872,18.1248001m12.544-6.45120012-7.3984,0,3.7632-8.90880008,0.0512,0,3.584,8.90880008"/><path d="m300.54983-12.600057-14.1312,0,0,1.9968,5.9904,0,0,16.1280001,2.1504,0,0-16.1280001,5.9904,0,0-1.9968"/><path d="m303.08983,5.5247431,10.4448,0,0-1.9968-8.2944,0,0-16.1280001-2.1504,0,0,18.1248001"/><path d="m313.79063,5.5247431,2.432,0,1.8688-4.4544001,9.0624,0,1.8432,4.4544001,2.5088,0-7.7056-18.1248001-2.0224,0-7.9872,18.1248001m12.544-6.45120012-7.3984,0,3.7632-8.90880008,0.0512,0,3.584,8.90880008"/><path d="m344.25783-10.936057c-1.3312-1.561599-3.0464-2.1248-5.0688-2.1248-3.1744,0-6.1696,1.740803-6.1696,5.2223999,0,3.020797,1.9456,4.1472009,4.5056,4.9920001,3.2256,1.0751989,4.736,1.4592022,4.736,3.68640001,0,2.07359799-2.0992,3.14880009-3.9424,3.14880009-1.5616,0-3.0976-0.6912014-3.8656-2.0224001l-1.8432,1.5104c1.2288,1.8175983,3.4816,2.5088001,5.5808,2.5088001,3.2768,0,6.3744-1.6896036,6.3744-5.29920009,0-3.55839651-2.6112-4.48000101-5.4272-5.37600011-2.8928-0.9215991-3.8144-1.6640017-3.8144-3.328,0-2.1503979,1.9712-3.0463999,3.8656-3.0463999,1.3056,0,2.5856,0.512001,3.3024,1.6639999l1.7664-1.5359999"/></g></g></g></svg>
